<svg xmlns="http://www.w3.org/2000/svg" width="142" height="31" viewBox="0 0 142 31">
  <g id="Group_4" data-name="Group 4" transform="translate(-131 1080)">
    <g id="Group_1" data-name="Group 1">
      <rect id="Rectangle_1" data-name="Rectangle 1" width="142" height="31" rx="15.5" transform="translate(131 -1080)" fill="#7f7f7f"/>
      <rect id="Rectangle_2" data-name="Rectangle 2" width="142" height="31" rx="15.5" transform="translate(131 -1080)" fill="#7f7f7f"/>
      <path id="icons8-camera-enhance-30_1_Traced_" data-name="icons8-camera-enhance-30 1 (Traced)" d="M8.4,1.524c-.474.841-2.557,1.689-4.629,1.884L0,3.764V20.99H26.915V3.764l-3.768-.355c-2.072-.195-4.156-1.043-4.629-1.884C17.373-.508,9.542-.508,8.4,1.524Zm-4.831.283A2.165,2.165,0,0,0,5.63,1.723c.357-.357-.278-.612-1.413-.565C2.963,1.209,2.708,1.464,3.567,1.808ZM18.5,6.643c3.128,2.939,3.187,7.008.151,10.241-2.939,3.128-7.008,3.187-10.241.151-3.128-2.939-3.187-7.008-.151-10.241C11.2,3.666,15.269,3.607,18.5,6.643Zm5.721-.187a1.077,1.077,0,1,1-1.077-1.077A1.08,1.08,0,0,1,24.224,6.455ZM12.381,8.171a2.755,2.755,0,0,1-2.153,2.278c-2.563.671-2.882,2.465-.437,2.465a2.755,2.755,0,0,1,2.278,2.153c.31,1.184.934,2.153,1.389,2.153s1.079-.969,1.389-2.153a2.755,2.755,0,0,1,2.278-2.153c.944,0,1.716-.484,1.716-1.077s-.772-1.077-1.716-1.077a2.755,2.755,0,0,1-2.278-2.153C14.176,6.045,12.381,5.726,12.381,8.171Z" transform="translate(189 -1075)" fill="#fff" fill-rule="evenodd"/>
      <path id="icons8-camera-enhance-30_1_Traced_2" data-name="icons8-camera-enhance-30 1 (Traced)" d="M8.4,1.524c-.474.841-2.557,1.689-4.629,1.884L0,3.764V20.99H26.915V3.764l-3.768-.355c-2.072-.195-4.156-1.043-4.629-1.884C17.373-.508,9.542-.508,8.4,1.524Zm-4.831.283A2.165,2.165,0,0,0,5.63,1.723c.357-.357-.278-.612-1.413-.565C2.963,1.209,2.708,1.464,3.567,1.808ZM18.5,6.643c3.128,2.939,3.187,7.008.151,10.241-2.939,3.128-7.008,3.187-10.241.151-3.128-2.939-3.187-7.008-.151-10.241C11.2,3.666,15.269,3.607,18.5,6.643Zm5.721-.187a1.077,1.077,0,1,1-1.077-1.077A1.08,1.08,0,0,1,24.224,6.455ZM12.381,8.171a2.755,2.755,0,0,1-2.153,2.278c-2.563.671-2.882,2.465-.437,2.465a2.755,2.755,0,0,1,2.278,2.153c.31,1.184.934,2.153,1.389,2.153s1.079-.969,1.389-2.153a2.755,2.755,0,0,1,2.278-2.153c.944,0,1.716-.484,1.716-1.077s-.772-1.077-1.716-1.077a2.755,2.755,0,0,1-2.278-2.153C14.176,6.045,12.381,5.726,12.381,8.171Z" transform="translate(189 -1075)" fill="#fff" fill-rule="evenodd"/>
    </g>
  </g>
</svg>
