<svg xmlns="http://www.w3.org/2000/svg" width="142" height="31" viewBox="0 0 142 31">
  <g id="Group_3" data-name="Group 3" transform="translate(-131 1005)">
    <g id="Group_2" data-name="Group 2" transform="translate(0 75)">
      <rect id="Rectangle_1" data-name="Rectangle 1" width="142" height="31" rx="15.5" transform="translate(131 -1080)" fill="#7f7f7f"/>
      <rect id="Rectangle_2" data-name="Rectangle 2" width="142" height="31" rx="15.5" transform="translate(131 -1080)" fill="#7f7f7f"/>
    </g>
    <path id="icons8-video-camera-96_1_Traced_" data-name="icons8-video-camera-96 1 (Traced)" d="M8.547.212A14.746,14.746,0,0,0,5.854,3.7c0,.11.7.2,1.548.2,1.2,0,1.64-.148,1.954-.65.343-.55.758-.65,2.68-.65,2.057,0,2.274.062,2.274.65,0,.542.217.65,1.3.65,1.273,0,1.3-.025,1.3-1.153A2.587,2.587,0,0,0,16.113.8C15.37.055,15.095,0,12.129.026A25.02,25.02,0,0,0,8.547.212ZM19.513,1.951V3.9h2.6c2.168,0,2.71-.108,3.252-.65a2.249,2.249,0,0,0,.65-1.3,2.249,2.249,0,0,0-.65-1.3C24.825.108,24.283,0,22.115,0h-2.6ZM.8,6c-.792.792-.8.848-.8,7.007s.007,6.215.8,7.007l.8.8h16.32l.8-.8a2.809,2.809,0,0,0,.8-2.439,5.031,5.031,0,0,1,.138-1.641c.076,0,1.5.789,3.171,1.754l3.033,1.754.093-3.217c.051-1.769.051-4.665,0-6.435l-.093-3.217L22.822,8.328c-1.668.965-3.095,1.754-3.171,1.754a5.031,5.031,0,0,1-.138-1.641A2.809,2.809,0,0,0,18.714,6l-.8-.8H1.6Zm16.113,7.007v5.2H2.6V7.805H16.911ZM5.2,11.708v1.3h5.2v-2.6H5.2Zm18.212,1.32V15l-1.626-.913a7.311,7.311,0,0,1-1.625-1.076,20.283,20.283,0,0,1,3.169-1.942A11.837,11.837,0,0,1,23.415,13.027Z" transform="translate(189 -1000)" fill="#fff" fill-rule="evenodd"/>
  </g>
</svg>
